<svg width="528" height="512" viewBox="0 0 528 512" fill="none" xmlns="http://www.w3.org/2000/svg">
<path d="M263.9 0C273.1 0 281.5 5.25 285.5 13.52L354.1 154.8L507.4 177.5C516.4 178.8 523.8 185.1 526.7 193.7C529.5 202.4 527.2 211.9 520.8 218.2L409.6 328.4L435.9 483.9C437.4 492.9 433.7 502.1 426.2 507.4C418.8 512.7 408.1 513.4 400.9 509.1L263.9 435.9L126.1 509.1C118.9 513.4 109.1 512.7 101.6 507.4C94.2004 502.1 90.5004 492.9 91.1004 483.9L118.2 328.4L7.11038 218.2C0.650376 211.9 -1.63962 202.4 1.20038 193.7C4.03038 185.1 11.5004 178.8 20.4904 177.5L173.7 154.8L242.3 13.52C246.4 5.249 254.7 0 263.9 0ZM263.9 78.95L211.4 187.2C207.9 194.3 201.1 199.3 193.3 200.5L74.9804 217.9L160.9 303C166.4 308.5 168.9 316.4 167.6 324.1L147.4 443.7L252.6 387.5C259.7 383.7 268.2 383.7 275.2 387.5L380.4 443.7L360.2 324.1C358.9 316.4 361.5 308.5 367 303L452.9 217.9L334.6 200.5C326.7 199.3 319.9 194.3 316.5 187.2L263.9 78.95Z" fill="white"/>
</svg>
